<svg xmlns="http://www.w3.org/2000/svg" viewBox="0 0 612 457.06"><title>Asset 6</title><g id="Layer_2" data-name="Layer 2"><g id="Layer_1-2" data-name="Layer 1"><path d="M178.78,348.19c-10.47-10.06-20.87-20.18-31.44-30.11-1.84-1.72-5-1.68-6.64-4.81l5.79-.39c-.77-2.76-3.62-3.83-3.33-7,.11-1.14-2.18-1-3.35-.79-4.15.63-7.06-1.22-9.94-4.24-12.52-13.16-26.53-24.73-37.56-39.47a144.87,144.87,0,0,1-17.12-29.34c3.22,0,6,.15,8.72-.07,1.14-.09,3.3,1.14,3.32-1.08s-2.2-1.83-3.71-1.84c-6.16,0-12.32,0-18.48,0-2.35,0-5,1-6.52-2.37-.55-1.22-2.34-.57-3.56-.58-7,0-13.9,0-20.84,0-.95,0-1.9,0-2.85,0a1.79,1.79,0,0,1-1.84-1.85c-.1-1.63,1.26-1.06,2-1.07,5.06-.07,10.12.12,15.16-.13,1.61-.08,4.56,1.86,4.6-2.43,0-.91,2-.45,3-.45,7,0,13.9,0,20.85-.1,1.09,0,3.24,1.16,3.23-1.25,0-2.13-2-1.66-3.35-1.66q-18.46,0-36.95,0c-1.26,0-2.53,0-3.79,0s-3.35.43-3.31-1.7c.05-2.33,2.17-1.23,3.29-1.23,22-.08,43.91,0,65.86-.13,1.26,0,3.64,1.36,3.75-1.19s-2.28-1.69-3.68-1.7c-6.32-.08-12.64,0-19-.07-1.44,0-3.74.7-3.62-1.82.1-2.11,2.24-1.08,3.4-1.09,10.42-.1,20.85,0,31.27-.12,1.43,0,4.15,1.15,4.16-1.17,0-3-2.93-1.7-4.56-1.71-17.21-.1-34.42,0-51.64-.1-2.25,0-4.71,1-6.41-2.32-.87-1.69-3.83-.46-5.84-.62-1.57-.13-3.16,0-4.74-.11-.95,0-1.3-.81-1.38-1.7-.12-1.29.86-1.16,1.56-1.18,2.21-.06,4.43,0,6.64,0,16.11,0,32.21,0,48.32,0,1.5,0,3.47,1.2,4.22-2.18.39-1.78,3.7-.62,5.68-.73,4-.24,8.39,1.34,9.75-5.13.42-2,3.65-.49,5.53-.93,1-.24,2.85.88,2.88-1.34,0-2.06-1.68-1.61-2.84-1.62-6,0-12,.13-18-.09-2.79-.1-6.23,1.65-8.09-2.56-.25-.59-2.35-.35-3.6-.36q-20.61,0-41.22,0c-1.1,0-2.21,0-3.31,0s-1.9-.16-2-1.52c-.11-1.6,1-1.37,1.89-1.43,1.11-.08,2.21,0,3.32,0,18.63,0,37.27,0,55.91-.06,1.26,0,3.58,1.34,3.73-1.35.14-2.36-2.44-.88-3.19-1.68-5.3-5.7-11.91-2.65-17.81-2.75-23.68-.39-47.38-.16-71.07-.16-.94,0-1.89.06-2.84,0s-2.37.35-2.47-1.45c-.1-2,1.37-1.48,2.33-1.5,3.47-.07,7,0,10.42,0H78.2c1.1,0,2.21,0,3.31-.07s1.35-.61,1.28-1.62a1.15,1.15,0,0,0-1.19-1.21c-1.42-.07-2.84-.14-4.26-.08-2.61.11-4.91.18-3.45-3.9.64-1.8-.78-2.13-2.2-2.12-3.79,0-7.58.09-11.37,0-1.21,0-3.34.92-3.4-1.31-.08-2.77,2.32-1.57,3.6-1.58,13.26-.09,26.53-.06,39.79-.06,7.58,0,15.16.06,22.74,0,1.33,0,3.71,1.1,3.75-1.43s-2.39-1.46-3.67-1.46c-30.16-.08-60.33,0-90.49-.14-1.83,0-5.26,1.55-5.27-1.55,0-2.72,3.36-.79,5.13-1.37S38,155.46,38,152.58s-3.48-1.39-5.34-1.43C23,151,13.4,151.1,3.77,151c-1.06,0-2.84.82-3-1.14-.24-2.5,1.81-1.78,3-1.79,17.69,0,35.38-.28,53.06.13,4.89.12,6.4-1.59,6.34-6.22a37.92,37.92,0,0,1,.61-4.94H46.29c-13.73,0-27.48.07-41.21-.08-1.74,0-5,1.54-5.08-1.22-.1-3.16,3.23-1.61,5-1.62,29.21-.11,58.43-.08,87.65-.08.94,0,1.89,0,2.84,0,1.35-.05,3.27.41,3.18-1.82-.08-1.94-1.9-1.05-2.94-1.12-2-.16-4.1,0-6.15-.1-.87-.06-2.49.78-2.4-1.25.07-1.51,1.24-1.7,2.42-1.7,4.27,0,8.53,0,12.79,0,3,0,6,0,9,0,1.2,0,2.86.31,2.87-1.63,0-2.13-1.79-1.31-2.8-1.32-8.21-.07-16.42,0-24.64,0-12.31,0-24.63.06-36.95-.08-1.59,0-4.63,1.33-4.63-1.16,0-3.2,3.22-1.68,5-1.68,22.27-.12,44.54,0,66.8-.17,2.06,0,5.9,1.66,5.91-1.63,0-2.63-3.84-1.18-5.87-1.2-24-.13-48-.05-72-.15-1.22,0-3.62,1.43-3.68-1.21-.06-2.44,2.29-1.5,3.72-1.72,2.71-.43,6,1.4,7.87-2.57.32-.68,2.64-.41,4-.41q36.48,0,73,0a36.63,36.63,0,0,0,3.78-.11,1.67,1.67,0,0,0,1.52-2.09c-.18-1.16-1.22-.75-1.89-.77-2.69-.06-5.38.1-8.06-.08-1.55-.1-4.27,1-4.45-.86-.33-3.13,2.6-1.91,4.25-2s3.21-.23,3.09-3.05q-14.59,0-29.23,0c-2.09,0-5.73-3.24-6-5.47C92.66,95.82,91.59,95,88.77,95c-17.69.18-35.37.09-53.06.09H30.45c.09-3.71,2.54-3,4.41-3,10.74,0,21.48,0,32.22,0,1.75,0,4,.72,4.6-2.72H32.92c.39-4.07,3-3.22,4.89-3.23,17.22,0,34.43-.23,51.64.11,4.61.08,7.62-1.65,10.79-5.91h-67c.8-4.09,3.4-3.2,5.43-3.2q46-.06,91.91,0c.95,0,1.9,0,2.84,0,1.81.09,3.52,0,4.38-2.07-2.27-.28-.58-4.25-4.21-4.12-12.3.47-24.63.18-36.95.18H93.16a142.41,142.41,0,0,1,67.67-47H111.75l-.29-.81,11.39-6.52c-3.93-1.4-7.64-.14-12.31-1.13l11.33-5.78-.06-.76c-4.15,0-8.32-.21-12.45.06-3.71.25-2.69-2.46-2.55-4.28S105.16,0,109.32,0q33.41.17,66.81,0c3.7,0,2.74,2.51,2.54,4.3-.44,3.92.86,5,4.58,4.87,11.82-.22,23.72-1,35.22,3.07,2.06.72,4.49.4,3.42,4.63-.73,2.9,1,5.59,5.24,6.6,25.18,5.93,47.08,18.56,65.5,37.74,2.36,2.46,4.67,5,7,7.42,3.48,3.61,5.79,3.65,9-.18,16.78-19.83,37-34.4,61.17-41.75,55.22-16.81,103-3.19,142.69,41,2.11,2.35,4.07,3.51,7.2,3.46,12.32-.19,24.64,0,37-.1,4.52,0,7.43,3.22,10.79,5.92H467.6c1.39,3.06,1.39,3.09,4.82,3.1,19.74,0,39.48.06,59.22,0,3.88,0,7.09.14,6.4,6H478.35c.24,3.79,2.67,3.07,4.59,3.08,11.05,0,22.11,0,33.16,0,1.78,0,4-.61,4.41,2.86H482.4c.26,3.92,2.74,3.09,4.63,3.1q27.48.06,55,0a8.39,8.39,0,0,1,6.54,2.5c4.66,4.39,10.23,7.22,17.13,6.63,7.22-.62,14.52-.16,21.78-.12,1.5,0,3.71-.55,3.74,1.79s-2.16.67-3.26,1.17c-.71.33-2.07-.39-1.81,1.33a1.84,1.84,0,0,0,2,1.67q5.68,0,11.37,0c1.78,0,3.64-.16,3.49,3h-5.15c-24,0-48,0-72,.09-1.41,0-4-1.83-4.33,2.31-.12,1.36-4,.24-6.18.64-.84.16-2.51-.89-2.35,1.23.1,1.42,1.17,1.79,2.41,1.74s2.21,0,3.32,0h72c.95,0,1.9,0,2.84,0,1.38,0,3.28-.27,3,2-.2,1.82-2,1-3.07,1q-34.11.07-68.22,0c-1.11,0-2.22-.07-3.31,0-.67.06-1.72-.4-1.86.83a1.66,1.66,0,0,0,1.55,2c1.26.1,2.52.08,3.79.08h59.69c1,0,1.9,0,2.85,0,1.18.07,2.84-.37,2.91,1.58.09,2.22-1.75,1.35-2.74,1.36-6.64.09-13.27,0-19.9.09-1,0-2.78-.79-2.88,1.24s1.55,1.69,2.77,1.71c2.21,0,4.42,0,6.63,0,1.33,0,3.25-.5,3.15,1.79-.09,2-1.89,1-2.94,1.15a14.85,14.85,0,0,1-2.83,0q-44.07,0-88.13.07c-1.23,0-3.67-1.39-3.67,1.32,0,2.5,2.39,1.56,3.77,1.57,18.79.06,37.58,0,56.38.09,1.42,0,3.61-1.07,4.18,1a34.2,34.2,0,0,1,1.22,9.33c0,1.12-2.19.6-3.38.61q-25.81,0-51.64,0a14,14,0,0,0-2.83,0c-1.16.23-3.27-1-3.13,1.53.12,2.33,2.16,1.18,3.37,1.4a16.81,16.81,0,0,0,2.84,0c9.32,0,18.64,0,28,.06,1.29,0,3.68-1.17,3.59,1.62-.08,2.22-2.17,1.15-3.37,1.27-1.88.19-3.79,0-5.68.09-.74,0-1.59,0-1.66,1.19s.67,1.71,1.72,1.74c1.27,0,2.53,0,3.79,0h89.07c1.27,0,2.53,0,3.79,0,.78,0,1.53.15,1.64,1.28.13,1.45-.74,1.62-1.74,1.66s-2.21,0-3.31,0h-59.7c-1.1,0-2.21,0-3.32,0-.92,0-2,0-1.91,1.5s1,1.46,2,1.46q6.39,0,12.79,0c1.63,0,3.13.38,2.32,2.46-1.6,4.07,1,3.32,3.2,3.62,1.9.27,5.43-1.44,5.36,1.52s-3.63,1.31-5.54,1.32c-19.11.15-38.22.09-57.33.09-1.1,0-2.21,0-3.31,0s-1.82.37-1.74,1.73c.07,1.19.91,1.16,1.65,1.2,1.26.07,2.53,0,3.79,0,27.32,0,54.65.21,82-.23,4-.07,5.38,4.12,9,3.79.6-.06.7,2.07-.82,2.33a22.69,22.69,0,0,1-3.78.11H536.14a36.63,36.63,0,0,0-3.78.11c-1,.1-1.12.94-1.09,1.83s.72,1,1.3,1c1.11.07,2.21.06,3.32.06,13.74,0,27.48-.06,41.22.08,1.56,0,4.22-1.63,4.58,2.26.11,1.12,2.24.64,3.46.64,7.1,0,14.21,0,21.32.06.9,0,2.43-.64,2.39,1.35,0,1.72-1.33,1.74-2.38,1.57-4.51-.68-7.89.66-10,5.26-.7,1.57-2.57.52-3.89.78-4,.79-8.67-2.11-11.94,2.76-.44.66-2.41.23-3.66.23H525.37c-1.26,0-2.52,0-3.78.09-1,.06-1.31.79-1.38,1.7-.1,1.29.88,1.15,1.57,1.18a45,45,0,0,1,5.2.09c1.74.28,4.52-1.66,4.82,2.47.07,1,2.25.44,3.46.45,17.37,0,34.74,0,52.11.09,1.48,0,4.31-1.21,4.3,1.14s-2.9,1.76-4.69,1.77c-10.43,0-20.85,0-31.27.06-1.53,0-4.16-1-4.09,1.78.06,2.42,2.5,1.08,3.79,1.11,6.15.16,12.31,0,18.47.12.84,0,2.5-.84,2.42,1.18,0,1.42-1.15,1.81-2.39,1.77s-2.21,0-3.32,0q-32.45,0-64.91,0c-1.81,0-4.37-1-4.47,3H541c1.27,0,2.54-.08,3.79,0,.78.07,2.11-.55,2.13,1,0,1.37-.89,2-2.21,2-1.58,0-3.16,0-4.74,0-5.21,0-10.43-.13-15.63.05-2.74.1-6-1.4-7.86,2.55-.29.61-2.36.38-3.61.39-5.21,0-10.42,0-15.63,0-1.74,0-3.66-.3-3.68,3,7.69,0,15.37-.12,23.05.1,1.55,0,4.56-2,4.6,2.38,0,1,1.93.48,3,.49,6.63.06,13.27,0,19.9.08.86,0,2.47-.9,2.48,1.07,0,1.35-1,1.94-2.32,1.87a2.46,2.46,0,0,1-.47,0c-8.67-2.26-12.09,3.15-15.59,10.42-6.56,13.59-15.89,25.17-26.47,35.59q-62.14,61.24-124.26,122.55c-2.45,2.42-4.83,3.63-8.31,3.55-11.2-.26-22.42-.09-33.63-.11-2.06,0-4.15-.17-5.57,3,2.22,0,4.26-.43,6,.13,1.52.5,5.32-2.84,4.47,2.46a40.79,40.79,0,0,0,4.11.39q41,0,82,0H432c-1.26,3.75-4,3-6.39,3q-50,0-100,0c-1.1,0-2.21.06-3.31,0-2-.12-3.67.4-4.67,2.41,2,.56.94,3.87,4.53,3.82,30.16-.39,60.32-.22,90.49-.22h5.26c-1.17,3.35-3.49,3-5.65,3H372.92c-2.16,0-4.5-.42-6.06,3a39.53,39.53,0,0,1,6,.1c.78.12,4.37-1.83,2.09,2.16-.35.62,1.15.7,1.86.72,2,.05,4,0,6.2,0-1,3.06-3.08,3-5.17,3-5.68,0-11.37-.09-17.05,0-3.67.07-7.54-1-10.67,2.47-.73.81-2.71.48-4.11.48-7.89,0-15.79,0-23.68,0-2,0-4.15-.17-5.09,3,3.16,0,6.16-.35,9,.19,1,.19,5-3,3.67,2.3-.18.68,1.63.48,2.51.49,4.5.05,9,0,13.51,0,0,1.72-1.14,2.66-1.69,2.58-5.95-.9-11,3.56-16.63,3.24-6.15-.35-11.08,2.61-16.36,4.72-1.63.64-3.1,1.48-4.91,1.47-10.74,0-21.48.08-32.21-.09-2.28,0-5.54.75-5.22-4.1.08-1.25-.61-1.79.95-1.8,1.89,0,3.8.09,5.68-.07.93-.08,3.4,1,1.67-2-.6-1,.95-.84,1.56-.87,1.73-.09,3.46,0,5.43,0-.76-2.65-2.44-3-4.39-3-3.63,0-7.27,0-10.9,0a13.41,13.41,0,0,1-7.92-2.13c-3.47-2.26-8-.6-12.06-.85-2.16-.13-4.5.41-6.13-3,7.78,0,15.21.27,22.6-.2,1.76-.11,5.93,3.41,5.88-2.5a16.78,16.78,0,0,1,3.1-.29c7.35,0,14.7,0,22,0l.29-1.66-28.28-5.72.25-1.39h44.48c-1.16-4-3.95-3.2-6.22-3.2q-46.44-.06-92.86,0c-5.13,0-8.8-3.34-13-6H309.05c-1.23-3.64-3.82-3-6.07-3q-42.17,0-84.33,0c-2.81,0-5.32-.06-7.92-2.16s-6.42-.57-9.69-.82c-2.13-.16-4.5.46-6-2.78H235l-38.31-37.8,3.6-.87c-5.77-5.65-11.41-11.16-17-16.7-1.35-1.33-3-.68-4.5-.89Z"/><path d="M263.46,452.37c-7.82,3.79-29.32,3.58-35.14,0Z"/><path d="M338.89,455.38a26.17,26.17,0,0,1-18.47,0Z"/><path d="M148.53,361.33h9.62a1.39,1.39,0,0,1,1.6,1.34c.07.73-.18,1.58-.8,1.53-3.56-.26-7.42,1.35-10.6-1.37Z"/><path d="M178.72,348.05v3.5c-1.67-.44-3.13-1.43-2.95-2.79.15-1.13,1.83-1.16,3-.57Z"/><path d="M130.27,9.66c-1.87.49-3.3,2.86-5.42,1.47a1.52,1.52,0,0,1-.14-1.37C126.45,8.21,128.4,9.23,130.27,9.66Z"/></g></g></svg>