<svg xmlns="http://www.w3.org/2000/svg" viewBox="0 0 583.12 512.11"><title>Asset 1</title><g id="Layer_2" data-name="Layer 2"><g id="Layer_1-2" data-name="Layer 1"><path d="M95.14,464.88c-7.59-.75-15.29-.21-22.92-.31-8-.11-16,0-24,0H0c.37-1.34.44-2.4.71-2.45,6.11-1.25,12.23-2.47,18.38-3.49a25,25,0,0,1,6,0c7.08.51,13.19-1.65,19.17-5.49,2.28-1.46,6.17-.33,9.32-.57,2.57-.19,5.64,1.25,7.3-2.44.3-.67,2.76-.5,4.23-.51,16,0,32,0,48,0a44.07,44.07,0,0,0,4.82-.52v-1.86a46.19,46.19,0,0,0-5.23-.57q-46-.06-92-.06a30.72,30.72,0,0,1-5-.8l.12-1.74c1.67-.14,3.34-.4,5-.41,14.67,0,29.34,0,44-.06,2.23,0,5.09,1.22,6.26-2.38.17-.54,2.44-.54,3.74-.55,6.5-.05,13,.1,19.5-.09,2.69-.07,6.08,1.5,7.71-2.52.2-.5,2.17-.39,3.32-.4,6.5,0,13,0,19.5,0a43.73,43.73,0,0,0,4.82-.6c-.74-1.25-.93-2-1.23-2-7.3-1.16-14.64-2.16-21.92-3.43-2-.35-3.79-1.69-5.77-2.22a50,50,0,0,0-5.77-.73,10.3,10.3,0,0,1-4.89-1.67c9.94-2.23,20.14-.29,30-1.92v-1.89a32,32,0,0,0-4-.48c-8.67-.05-17.34.09-26-.09-3-.06-6.63,1.59-8.72-2.57-.33-.67-2.81-.35-4.3-.35q-25.76,0-51.5,0H20.25l-.45-1.27c.7-.57,1.34-1.45,2.13-1.62a18.84,18.84,0,0,1,4-.1q48.75,0,97.5,0a44.24,44.24,0,0,0,5.24-.6v-1.75a28.2,28.2,0,0,0-3.83-.6c-4-.07-8,.06-12-.06-2.29-.07-5,1-6.36-2.35-.26-.65-2.73-.59-4.18-.59-12.33,0-24.66.06-37-.12-1.77,0-3.49-1.48-5.3-2.07a14,14,0,0,0-4.23-.8c-10.66-.07-21.33,0-32-.07a35,35,0,0,1-4.74-.63l.12-1.81H68.78V287.62H40.22c-16.65,0-28.16-7.21-33.08-20.71C2.06,253,6.19,239.22,18.62,228.45c10.18-8.82,20.32-17.7,30.13-27.65H10.84l-.32-1.65c1.67-.53,3.31-1.42,5-1.53,3.65-.24,7.36.23,11-.17,3.15-.35,6.19-1.54,9.3-2.26a20.38,20.38,0,0,1,4.38-.62c6-.06,12,.26,18-.13,3.46-.23,6.84-1.6,10.28-2.33a23.8,23.8,0,0,1,4.9-.54c14.17,0,28.34,0,42.5-.09,2,0,4-.83,6-1.28l-.27-1.49H58.88v-3.22H25.73l-.37-1.39c1.9-.52,3.81-1.47,5.72-1.49,16.16-.12,32.33,0,48.5-.13,2,0,4.07-.86,6.11-1.32l-.27-1.46H17.72l-.31-1.64c2-.5,4-1.44,5.95-1.45,25.66-.1,51.33,0,77-.16,2.78,0,5.54-1.48,8.33-2.15a21.62,21.62,0,0,1,4.85-.72c10.66-.07,21.33,0,32-.09,1.9,0,3.79-.76,5.68-1.16l-.23-1.61H34.51L34.19,169c2-.48,3.93-1.35,5.9-1.36,16.83-.11,33.68.35,50.49-.29,5.93-.23,11.74-3.07,17.62-4.67a21.79,21.79,0,0,1,5.23-1.06c10.67-.09,21.33,0,32-.1,1.6,0,3.19-.76,4.78-1.16l-.3-2.3H33.57l-.27-2.17c2-.44,4-1.24,6.06-1.26,14.34-.11,28.67,0,43-.12,2.06,0,4.1-.84,6.15-1.3l-.23-1.46H67.63l-.42-1.58c1.86-.53,3.71-1.51,5.58-1.52,13.66-.14,27.33,0,41-.13,2.06,0,4.1-.8,6.15-1.22l-.23-1.53H104.56l-.43-1.58c1.71-.54,3.4-1.49,5.12-1.53,4.81-.14,9.75.6,13.19-4a3,3,0,0,1,2.21-.95c11.36.35,22.15-5,33.69-3.22,2.35.37,4.92-.68,7.39-1.07l-.26-1.8H122.68l-.34-1.53c1.81-.49,3.61-1.39,5.43-1.42,22.62-.43,45.25-.72,67.87-1.08,1.71,0,3.42-.24,5.12-.37l0-1.82H133l-.37-2.09c1.62-.56,3.22-1.54,4.87-1.62,4.65-.23,9.34.18,14-.14,13.15-.89,26.28-2,39.41-3.11.54,0,1-.6,2.71-1.64H149.73l-.45-1.28c1.37-.64,2.72-1.74,4.13-1.83,8.61-.49,17.24-.9,25.86-1,9.83-.17,19.67,0,29.5-.09,1.95,0,3.89-.75,5.83-1.15,0-.52-.08-1-.11-1.55-1.68-.08-3.35-.23-5-.23-17.5,0-35,0-52.5-.12-1.47,0-5.06,2.09-4.32-2.46l-7.71-.76-.25-1.25c2.2-.47,4.39-1.35,6.58-1.36,19.84-.11,39.67,0,59.5-.13,2,0,4.05-.85,6.08-1.31l-.29-1.52H112.36L112,99c2.11-.48,4.21-1.37,6.32-1.38,23.84-.1,47.67.16,71.5-.25,4.71-.08,9.38-2.6,14.07-4l-.36-1.57h-74l-.38-1.74c2-.51,4.09-1.44,6.13-1.45,29-.1,58,0,87-.12,2.24,0,4.47-.72,6.71-1.11l-.19-1.7H204.47c-.09-.66-.17-1.31-.26-2l14.93-2.33-.31-2.4H163.45l-.24-2.15c2-.43,4-1.22,6.07-1.23,23.49-.09,47,0,70.49-.11,2.3,0,4.59-.75,8-1.34l-5.54-3.3c.15-.48.29-1,.43-1.44H177.38l-.3-1.51c2-.45,4-1.28,6-1.29,13.17-.12,26.33,0,39.5-.11a40.25,40.25,0,0,0,6.26-1.07l-2.58-4.81h-5.72V57.51h-55l-.39-1.41c1.89-.52,3.78-1.46,5.68-1.48,10.66-.15,21.33,0,32-.16,2,0,4-1.18,6-1.7a24.28,24.28,0,0,1,5.69-1.16c19.67-.09,39.33,0,59-.1a38.85,38.85,0,0,0,6.34-1.06c-.05-.53-.11-1-.16-1.58H197.15v-6.4H174l-.25-1.5c2.17-.47,4.35-1.35,6.52-1.35,31.17-.09,62.33,0,93.5-.11a43.18,43.18,0,0,0,6.8-1.1l-.15-1.57h-52.7l.91-3.41H210.41l-.31-1.49c2-.46,4-1.31,5.93-1.32,20.67-.1,41.34,0,62-.12,2.05,0,4.09-.75,6.14-1.16L284,27.79H257.81V24.34H235.9l-.26-1.4c1.88-.47,3.75-1.28,5.63-1.33,6-.17,12,0,18-.13,1.89-.05,3.75-.85,5.63-1.3l-.3-1.5H220.43L220.08,17c1.93-.5,3.86-1.4,5.8-1.43,10.5-.14,21-.24,31.49,0,4,.1,7.05-.79,9.74-3.73C275.7,2.46,286.27-1.33,299,.41c10.11,1.38,17.19,7.44,24.65,14.8H286.62l-.42,1.73c1.85.53,3.69,1.51,5.54,1.53,13.33.14,26.67,0,40,.14,2,0,4.05.85,6.07,1.31l-.28,1.51H315.8l-.4,1.43c1.61.56,3.2,1.53,4.84,1.6,4.66.23,9.33,0,14,.1,4.07.08,8.3-.88,11.82,2.51.83.8,2.87.45,4.36.46,7.33,0,14.67-.06,22,.07,1.78,0,3.55.79,5.33,1.2l-.2,1.48H310.65l-.36,1.63c1.64.54,3.24,1.43,4.91,1.56,3.31.25,6.66,0,10,.09,4.07.1,8.27-.85,11.83,2.49.94.88,3.19.48,4.84.48,15.5,0,31,0,46.5.07,2.1,0,4.18.74,6.27,1.14l-.18,1.56H295c-.12.52-.24,1-.37,1.56,1.63.56,3.24,1.53,4.88,1.6a108.68,108.68,0,0,0,15,0c6.8-.64,12.35,2.27,18.11,5a13.6,13.6,0,0,0,5.73,1c25.5.07,51,0,76.5.09a37.92,37.92,0,0,1,6.26,1.06L421,51.3c-1.68.08-3.35.23-5,.23-18,0-36-.06-54,.12-1.84,0-5.51-2.23-5.51,2.58a16.56,16.56,0,0,1-3.28.3q-14,0-28,0h-4.74l-.28,1.69c2,.44,4,1.24,6,1.26,16.66.1,33.33,0,50,.14,2.31,0,4.61,1.26,6.92,1.89,1.41.38,2.84.68,4.25,1,5.17,1.25,10.35,2.47,15.5,3.79.49.12.82.88,1.82,2H359.8l-.31,1.7c2.12.5,4.23,1.41,6.36,1.42,20,.11,40-.25,60,.26,5.69.15,11.32,2.7,17,4.15l-.28,1.46h-76c-.12.57-.23,1.14-.34,1.72,1.8.49,3.59,1.37,5.4,1.41,8,.15,16-.06,24,.1,10.46.2,20.91.57,31.36,1,1.58.07,3.11,1.07,4.66,1.64-.1.39-.19.79-.29,1.18h-7.74l-.4,1.5c1.74.53,3.48,1.49,5.23,1.53,7,.18,14,0,21,.14,1.88,0,3.74.82,5.6,1.27l-.3,1.52H362.09L361.76,90c2.1.51,4.19,1.45,6.28,1.46,21.67.11,43.34.06,65,.07,1,0,2,0,3,0,3.67.1,8.41-1.14,6.65,5.91H365.64l-.32,1.63c2.12.49,4.24,1.39,6.36,1.39,32.84.09,65.67,0,98.5.11a42.4,42.4,0,0,1,6.72,1.1l-.18,1.66H412.35l-1.16,1.8a15.76,15.76,0,0,0,2.8,1c7,1.16,14.06,3,21.13,3.21,18,.46,36,.12,54,.21,2.05,0,4.09.77,6.13,1.18-.09.69-.17,1.38-.26,2.08H439.53l-.36,2.09c1.9.53,3.79,1.5,5.69,1.52,12.66.14,25.33.06,38,.1,1.71,0,3.43.31,5.14.47l0,2-47.85,3.45c2.47.91,4,1.87,5.54,2,3.65.25,7.33,0,11,.09q28.18.48,56.37,1a28.88,28.88,0,0,1,4,.63c-.05.56-.09,1.12-.14,1.68h-70l-.36,2.09c1.9.52,3.81,1.48,5.72,1.5,12.83.14,25.67,0,38.5.14,2,0,4,.88,6,1.36l-.27,1.37H476.4c-1.8,6.09-6.92,1.49-10,4l3.18,4-10.34.53c7.81,5.77,16.81-.15,23.52,5.49H437.37l-.36,1.79c1.81.48,3.6,1.33,5.41,1.39,5.83.18,11.67,0,17.5.13,1.73,0,3.43.84,5.15,1.3-.08.47-.17.94-.25,1.42H417.23l-.5,1.11a17.64,17.64,0,0,0,3.18,2,9.12,9.12,0,0,0,3,.13q56.94.51,113.87,1.07c2.26,0,4.52.92,6.78,1.41l-.2,1.34H506.8c.34,1.27.56,2.08.83,3l-5.09.27,1.23,2.69H447.84l-.36,1.77c2.23.47,4.45,1.34,6.67,1.34,36.84.09,73.67,0,110.5.11a43.52,43.52,0,0,1,6.83,1.09c0,.49,0,1-.05,1.46a32.38,32.38,0,0,1-3.52.39c-9,0-18-.19-27,.17-2,.09-6.18-2.91-6.49,2.59a19.3,19.3,0,0,1-3.79.24q-37,0-74,0H451.4l-.27,1.7c2,.44,4,1.24,6,1.25,21,.09,42,0,63,.11,2,0,4,.81,6,1.24l-.27,1.54H473.25c-.12.5-.24,1-.35,1.5,1.67.55,3.34,1.55,5,1.59,7.66.17,15.34,0,23,.12,4.85.1,10-1.28,14.29,2.59.87.78,2.89.35,4.38.35,19.17,0,38.34,0,57.5.07,2,0,4,.82,6,1.26l-.28,1.54h-48.3l1.36,3.15c-8,0-15.8-.07-23.57.07-1.1,0-2.18,1.1-3.27,1.68.15.46.31.92.47,1.38h-16.8l-.29,1.46c2,.47,4,1.32,6,1.34,11,.13,22-.13,33,.21a12.88,12.88,0,0,1,7.2,3.2c10.74,9.22,21.09,18.92,31.92,28,15,12.58,12.11,32.45,3.65,43.19-6.22,7.89-14.41,12.28-24.53,12.44-10.66.17-21.32,0-32.36,0v117H467.82c-.13.58-.25,1.17-.37,1.76,1.31.4,2.62,1.13,3.94,1.14,10.83.1,21.66,0,32.49.16,1.73,0,3.38,1.53,5.15,2.12a13.9,13.9,0,0,0,4.28.74c12.34.06,24.67-.07,37,.14,1.87,0,3.68,1.57,5.58,2.26a10.61,10.61,0,0,0,3.35.61c4.83.06,9.66,0,14.5.07a15.36,15.36,0,0,1,3.48.89c-.08.61-.16,1.22-.25,1.84H468.75l-.33,2.24a21.82,21.82,0,0,0,4.51.94c17.16.07,34.33,0,51.49.09,2.53,0,5.63-1.27,7.18,2.44.25.59,2.45.49,3.75.49,9.66,0,19.33,0,29,.07a6.72,6.72,0,0,1,4.32,1.75c-10,1.9-20.15.42-30,1.66v1.91c1.15.21,2.3.44,3.46.63,3,.47,5.87-.8,8.79,2.42,1.61,1.78,6.66.26,10.1.68,1.78.22,3.38,1.67,5.17,2.1,2.2.52,4.51.52,6.76.82,1.65.21,3.28.55,4.92.83l-.12,1.47a14.83,14.83,0,0,1-3,.65c-6,.06-12-.12-18,.1-2.63.1-6.06-1.61-7.59,2.53-.18.48-2.16.38-3.31.39-6.33,0-12.67-.13-19,.08-3,.09-6.62-1.57-8.64,2.59-.29.6-2.5.33-3.82.33-15.17,0-30.34,0-45.5.05a26.5,26.5,0,0,0-4.52.81c.06.76.13,1.52.19,2.28h102c0,.76.07,1.52.11,2.29a43,43,0,0,1-4.77.56c-16,0-32,0-48,.13-1.88,0-3.7,1.63-5.64,2.17a16,16,0,0,1-5.31.67,28.07,28.07,0,0,0-19.64,5.66c-.78.59-2.25.37-3.4.38-4.84,0-9.68-.19-14.5.09-3.14.18-7-1.73-9.2,2.58-.31.61-2.51.18-3.82.36s-2.73.55-4.09.83l.15,1.72c1.82.15,3.64.41,5.46.42q42.26,0,84.5.05a31.41,31.41,0,0,1,5,.79l-.17,2.17H506.3c-6.17,0-12.34-.1-18.5,0-5.82.13-11.73-.57-17.46.46,0,.71.05,1.41.08,2.12h46.16c2.42,19.6-13.89,39.55-33.84,41.32-11.23,1-22.61.51-33.92.56-16.33.07-32.67,0-49,0-24.36,0-40.13-14.24-42.65-38.41-.08-.81-.2-1.63-.39-3.1H332.94c-7.61,0-15.24.06-22.85-.05l.12-2.76H383c.11-.69.21-1.38.32-2.07a17.09,17.09,0,0,0-4.08-1.07c-12-.08-24,0-36,0H288a11.77,11.77,0,0,1,.75-2.47c6.56.18,12-5.16,18.92-3.64,3,.67,6.31.06,9.47.13,5.61.11,10.12-2.53,14.74-5.3,1.64-1,4.16-.4,6.25-.74,3.75-.62,8.24,2,11.18-2.68.4-.65,2.52-.28,3.85-.29,16,0,32,0,48,0a43.93,43.93,0,0,0,4.81-.53c0-.62,0-1.24,0-1.86a49.22,49.22,0,0,0-5.25-.56q-46-.06-92-.06a30.78,30.78,0,0,1-5-.82l.15-1.73c1.68-.14,3.35-.39,5-.4,14.67,0,29.33,0,44-.06,2.24,0,5.06,1.14,6.25-2.39.18-.55,2.45-.53,3.75-.54,6.5-.05,13,.09,19.5-.08,2.69-.08,6.07,1.47,7.7-2.54.21-.5,2.18-.38,3.33-.39,6.5,0,13,0,19.5,0a42.77,42.77,0,0,0,4.82-.63c-.78-1.25-1-1.95-1.28-2-7.3-1.15-14.64-2.14-21.93-3.41-2-.35-3.77-1.74-5.75-2.23s-4.2-.43-6.29-.73a8.18,8.18,0,0,1-4.37-1.74c10-2,20.14-.33,30-1.77l0-2a33.81,33.81,0,0,0-4-.47c-8.66-.05-17.33.09-26-.09-3-.06-6.63,1.56-8.71-2.59-.34-.67-2.82-.33-4.31-.33q-25.76,0-51.5,0h-5.3c-.16-.43-.31-.87-.46-1.3.71-.56,1.37-1.47,2.15-1.59a31.89,31.89,0,0,1,5-.1q48.24,0,96.5,0a42.75,42.75,0,0,0,5.24-.62l0-1.74a29.86,29.86,0,0,0-3.85-.59c-4-.07-8,.06-12-.06-2.3-.07-5,1-6.35-2.37-.26-.65-2.73-.57-4.19-.57-12.33,0-24.67.06-37-.12-1.76,0-3.48-1.5-5.28-2.09a14.36,14.36,0,0,0-4.24-.78c-10.66-.06-21.33,0-32-.07a33.42,33.42,0,0,1-4.72-.64l.12-1.81h50.42c-.6-10.48-.05-20.23-1.94-29.5a29.21,29.21,0,0,0-28.42-23.18c-22.66-.43-45.34-.51-68,0-16.41.37-29,13.45-29.8,29.91-.35,7.27-.06,14.57-.06,23.1-17.07,0-33.42,0-49.78,0,0,0-.06.61-.15,1.69,1.64.14,3.31.39,5,.4,10.5,0,21-.08,31.5.11,1.62,0,3.17,1.46,4.82,2a13.46,13.46,0,0,0,4.17.84c12.33.06,24.67-.06,37,.14,1.93,0,3.81,1.51,5.77,2.17a12.67,12.67,0,0,0,3.75.69c4.34.09,8.67,0,13,.06a39.7,39.7,0,0,1,4.33.54l0,1.81a44.15,44.15,0,0,1-5.22.6q-49.26,0-98.5.06a30.08,30.08,0,0,0-4.94.8l.15,1.79c1.67.13,3.34.36,5,.36,17.17,0,34.34,0,51.5.07,2.21,0,5.12-1.31,6.25,2.37.16.53,2.44.55,3.74.55,9.5,0,19,0,28.5,0h4.8l.35,1.69c-1.19.44-2.38,1.23-3.57,1.25-7.17.12-14.34,0-21.5.07-1.59,0-3.18.14-4.76.21l-.36,1.4a14.05,14.05,0,0,0,3.11,1.34c3.16.51,6.69-1.17,9.25,2.67.7,1.05,4.11.12,6.24.42,3.29.45,7.22-1.78,9.71,2.58.44.78,3.13.32,4.78.36,1.94.05,3.87,0,5.81,0l.36,1.67c-1.19.44-2.37,1.24-3.56,1.26-6.67.13-13.34-.07-20,.16-1.6.06-3.13,1.46-4.75,2.06a11.62,11.62,0,0,1-3.75.81c-6.33.08-12.67-.1-19,.09-3,.09-6.6-1.5-8.69,2.55-.33.62-2.5.38-3.81.38q-22.24,0-44.5,0h-5.28l-.32,1.88a16.52,16.52,0,0,0,4.08,1.07c8,.11,16,.06,24,.06q34.5,0,69,0a47.39,47.39,0,0,1,5.26.62c0,.58,0,1.16,0,1.74a38.91,38.91,0,0,1-4.79.59c-16.16,0-32.33,0-48.5.12-1.62,0-3.18,1.46-4.85,2a15,15,0,0,1-5.17.88,28,28,0,0,0-19.58,5.68c-.78.59-2.26.36-3.41.37-4.67,0-9.35-.21-14,.09-3.3.21-7.28-1.83-9.72,2.58-.38.7-2.83.17-4.31.37a36.15,36.15,0,0,0-3.52.87l.15,1.69c1.83.14,3.66.4,5.49.4q42.26,0,84.5.05a30.43,30.43,0,0,1,5,.8l-.12,1.75c-1.67.14-3.35.39-5,.4-21,0-42,0-63,.05a30.81,30.81,0,0,0-5,.79l.17,1.81h46.2c2.18,19.55-13.81,39.11-33.43,41.3-6.92.77-14,.53-21,.55-20.49.06-41,0-61.48,0-25.54,0-40.83-13.68-43.63-39-.07-.65-.22-1.29-.52-2.95H22.11v-2.49c24.27-.23,48.56,0,72.83-.14Z"/></g></g></svg>