<svg xmlns="http://www.w3.org/2000/svg" viewBox="0 0 565.85 448.67"><defs><style>.cls-1{fill:#fff;}</style></defs><title>Asset 4</title><g id="Layer_2" data-name="Layer 2"><g id="Layer_1-2" data-name="Layer 1"><path d="M62.93,32.68H27.2l-.34-1.6c1.35-.38,2.7-1.09,4.05-1.1,11.83-.09,23.66-.05,35.49-.05,13,0,26,0,39-.05a23.13,23.13,0,0,0,4.51-.91l-.2-1.68H19.9l-.51-2c1.43-.44,2.86-1.26,4.3-1.27,15.5-.09,31-.23,46.49.05,4.74.09,8.52-.81,11.36-4.68-1.22-4.2-4.21-4.71-8.11-4.51a176,176,0,0,1-19.49,0c-2.94-.18-7.11,2.51-8.79-2.67-.12-.39-2.18-.19-3.34-.2H24.93l-.31-1.64c2-.46,3.92-1.3,5.88-1.3C55.67,8.9,80.83,9,106,8.87c2,0,4.11-.77,6.16-1.18L112,6H45.09l1.69-3h-9.1l-.23-.86A13.2,13.2,0,0,1,40.6,1,82.6,82.6,0,0,1,50.52.14Q239.76,0,429,0c5.23,0,10.46,1.5,15.7,2.25,2.12.3,4.3.31,6.41.67,4.49.76,8.95,1.71,13.44,2.48a34.14,34.14,0,0,0,5.43.48c20.33,0,40.66,0,61,.06A38.79,38.79,0,0,1,537.32,7c-.05.57-.11,1.14-.16,1.71H456.51c-.11.55-.22,1.1-.32,1.65,1.48.51,2.95,1.39,4.46,1.46,4.15.21,8.33,0,12.49.11,3.5.13,7.35-1.21,10.13,2.53.52.7,2.52.41,3.84.42,7.33,0,14.67.22,22-.05,5.66-.21,11,.18,15.42,4.52-.43,3.47-2.16,4.71-6,4.65-15.49-.25-31-.1-46.49-.1h-5.42l-.5,1.59c1.26.47,2.5,1.32,3.77,1.34,6.83.14,13.66.07,20.5.07q31.25,0,62.49,0a23.3,23.3,0,0,1,4.67.94c-.1.66-.21,1.32-.31,2H475.18c-.12.62-.23,1.24-.35,1.86,1.34.39,2.67,1.11,4,1.12,9,.1,18,.06,27,.06h4.86c1.15,14.5-11,28.87-25.92,31a69.62,69.62,0,0,1-9.47.61q-188,0-376,0c-18.39,0-30.72-8.44-34.89-23.86C63.82,38.29,63.52,35.82,62.93,32.68Z"/><path d="M37,181.84a32.58,32.58,0,0,1,5.38-.87c19-.07,38,0,57-.09a25.59,25.59,0,0,0,4.94-1l-.28-1.81H21.13l-.32-2c1.74-.39,3.48-1.11,5.22-1.12,13.33-.1,26.67,0,40-.14,1.92,0,3.78-1.45,5.75-1.87,2.52-.53,5.13-.66,7.69-1.06,1.88-.3,3.74-.78,5.6-1.17L84.81,169H18.5l-.34-1.46c3.84-1.5,7.59-4,11.53-4.34,16.85-1.37,33.74-2.88,50.62-2.92Q264,159.78,447.78,160c4.75,0,9.51.78,14.26,1.19l-.05,1.41H442.11c.79,5.88,4.33,6.47,8.95,6.43,19.83-.19,39.66-.12,59.49,0,2,0,4,.78,6,1.2l-.27,1.75a34.18,34.18,0,0,0-4.75,0c-1.55.22-4.29-1.42-4.18,2.27a12.56,12.56,0,0,1-4,.65q-21,.08-41.95,0c-.17.51-.34,1-.5,1.54,1.77.48,3.55,1.39,5.32,1.39,25.17.1,50.33,0,75.5.1a36.91,36.91,0,0,1,5.47.83l-.2,1.87H482.53l-.46,1.92c1.62.45,3.24,1.28,4.87,1.29,19,.09,38,0,57,.1a27,27,0,0,1,5.1,1c-.11.58-.21,1.15-.31,1.73l-9.3.43c-.09.49-.18,1-.26,1.48,8.46,3.1,17.05,5.69,26.66,4.08l0,2.14a18.7,18.7,0,0,1-4.23,1c-8,.1-16,0-24,.1-1.4,0-2.79.76-5,1.4l13,5.12.33,1.23a21.43,21.43,0,0,1-4.73,1.14c-10.16.11-20.33,0-30.49.12-1.55,0-3.08.84-4.62,1.29l.38,1.62h34.39c.12.55.25,1.09.37,1.64-1.85.46-3.69,1.32-5.54,1.33-29,.08-58,0-87,.11-1.92,0-3.85.81-5.77,1.25.11.55.22,1.11.32,1.66h21.76l.39,1.23-8.47,3.7.26,1h76.24c.08.53.17,1,.25,1.57-3.15.52-6.3,1.47-9.44,1.48-27.34.12-54.67,0-82,.08q-196,.51-391.91,1.06a26.43,26.43,0,0,1-8.44-.91h83.29l.23-1.44c-2.89-.57-5.79-1.62-8.69-1.64-24.16-.13-48.33,0-72.49-.16-2.71,0-7.1,1.61-6.78-4.19,0-.49-2.74-1.6-4.23-1.64-6.16-.19-12.33,0-18.49-.14a24.83,24.83,0,0,1-5.12-1.2L9.93,211h93.42l.34-1.8c-1.6-.44-3.19-1.24-4.79-1.26-9.66-.11-19.33,0-29-.11-1.61,0-3.21-.74-4.82-1.13l.3-1.8h36.54l.48-1.72-16-5.74.33-1.32h31.21c-1.15-3-1.17-2.67-13.23-3.41-4.29-.26-8.46-2.49-13.17-4.94l10.81-1.73-.31-2H37.42Z"/><path d="M190.51,336.6c-7.82.11-15.64.28-23.46.31-12.5,0-25,.23-37.49,0-17.55-.36-35.09-1-52.62-1.67-11.84-.44-23.66-1.27-35.5-1.61-3.77-.1-5.33-1.21-4.19-5.83,7.16-.6,14.63-1.66,22.12-1.75,20.66-.24,41.32,0,62-.15,2.4,0,4.79-.93,7.19-1.43l-.27-1.52H51.62l-.14-1.56c4.66-.48,9.31-1.36,14-1.36q168.48-.12,337-.06c14.17,0,28.54-1.4,42.46.48C476.4,324.66,508,322,539.53,323a7.8,7.8,0,0,1,5.27,2.64H469.36l-.32,1.64c1.84.55,3.67,1.55,5.52,1.57,12.66.14,25.33,0,38,.16,2.13,0,4.23,1.28,6.37,1.84a22,22,0,0,0,5.2,1c10.33.09,20.67,0,31,.1,1.66,0,3.32.77,5,1.19l-.28,1.76h-5.19c-18.5,0-37,0-55.49.06-1.54,0-4.34-1.48-4.33,2.23,0,.23-2.29.67-3.52.67-12.5.05-25,0-37.5,0h-5.44c-.15.54-.29,1.09-.44,1.64,1.65.45,3.29,1.29,4.94,1.3,16.33.09,32.66,0,49,.11,1.53,0,3.06.73,4.59,1.13-.12.58-.23,1.17-.35,1.75H456.77c-.16.38-.33.77-.5,1.15,2.46,2.06,3.92,5,8.26,5,22.17-.16,44.33-.09,66.5,0a9.74,9.74,0,0,1,5.16,1.46c-15.11,3.73-31.54-2.48-45.78,6,0,.51.09,1,.13,1.55a33.45,33.45,0,0,1,5.3.05c3,.48,6.89-1.86,8.92,2.61.26.58,2.5.32,3.81.32,6.3,0,12.59,0,18.89,0,.12.58.23,1.16.35,1.74-1.55.42-3.09,1.18-4.65,1.2-9.83.11-19.66,0-29.49.11-1.62,0-3.23.78-4.84,1.2l.31,1.46,7.29.54.27,1.46c-2.08.43-4.16,1.19-6.25,1.23-8.95.16-8.95.08-14.31,6h85.47l.25,1.61c-2.23.5-4.44,1.38-6.67,1.42-9.16.16-18.33,0-27.5.09-7.1.07-14.31-1-21.09,2.43-1.52.76-3.6.51-5.43.52-53.64.38-107.28,1-160.92,1q-153,.24-306,.05H24.85v-.91h78.32L98.94,380h42.72l.25-1.66c-2.35-.46-4.7-1.32-7.06-1.32q-39.75-.15-79.49,0c-4.21,0-7.19-.88-7.82-6H58.75l.34-1.79L47.9,366.81l.23-1.64H83.59l.43-1.75c-1.33-.5-2.65-1.37-4-1.42-4.66-.18-9.33.06-14-.12-3.08-.12-6,.7-9-2.33-1.69-1.71-6.35-.41-9.65-.67a27.29,27.29,0,0,1-4.57-1.24c9.53-6.33,19.31-4.63,28.84-4.7q73.92-.56,147.84-1c1,0,1.95-.1,3.14-.16v-6.42H191.24c-.3-3-.57-5.95-.85-8.84,8.45.14,16.9.33,25.34.4,7.58.06,8.27-.94,6.4-8.6H191.05C190.85,331.32,190.68,334,190.51,336.6Zm-83.11-4-.2-.58H74.8v.58Z"/><path d="M222.6,430.27v18.4H191.23v-18.4Z"/><path d="M29,429.6v-4.42h84.41c.14,1.29.3,2.67.49,4.42Z"/><path d="M2.17,73.67c7.77-1.11,16.8,2.56,22.29-6.78-.56-3.55-3.14-4.17-6.61-4-4.64.24-9.29.09-13.94,0A5.14,5.14,0,0,1,0,61.4H28.53V73.67Z"/><path d="M28.67,343.93v6c-4.72,0-9.36.39-13.88-.19-1.79-.23-3.31-2.61-4.95-4,1-.6,1.92-1.67,2.91-1.71C17.87,343.84,23,343.93,28.67,343.93Z"/><path d="M28.64,340.6H5.05c1.92-2.84,9.31-3.7,21-2.61,1,.09,2,.95,3,1.46Z"/><path class="cls-1" d="M190.51,336.6c.17-2.64.34-5.28.54-8.3h31.08c1.87,7.66,1.18,8.66-6.4,8.6-8.44-.07-16.89-.26-25.34-.4Z"/><path class="cls-1" d="M107.4,332.64H74.8v-.58h32.4Z"/></g></g></svg>