<svg xmlns="http://www.w3.org/2000/svg" viewBox="0 0 539.95 512.57"><defs><style>.cls-1{fill:#fff;}</style></defs><title>Asset 1</title><g id="Layer_2" data-name="Layer 2"><g id="Layer_1-2" data-name="Layer 1"><path d="M192,462h16.89c0-9.52.56-18.81-.39-27.95-.24-2.32-4.13-4.61-3.45-8.36a31,31,0,0,0,0-5.12l-4.37-1c-.15-3.25-.29-6.53-.47-10.38H151.94c4.42-4.73,8.31-9,12.28-13.13,1-1,2.39-1.72,3.29-2.82,5.73-7,14.24-8.57,22.61-4.06,2.85,1.53,5.9-.32,6.26-4.19H185.52l-1.13-1.2c3.82-5.3,7.56-10.68,11.56-15.85.61-.78,2.42-.85,3.68-.88,5-.09,10.07-.56,15,.08,7.13.94,11.32-2.17,14.21-8.83H212.34l72-92.69c-7.18-2-15.34,2.26-21-4.7,1.67-4.32,4.88-6.79,10.16-5.9,6,1,10.56-.75,13.74-6.29,1.8-3.14,3-5.37-2.59-6.13l.73-1.58c4.11,0,8.25-.34,12.31.09,4.39.47,7-1.33,9.54-4.66,2.78-3.58,4.37-8.84,10.41-8.93.9,0,1.83-1.79,2.65-2.83,5.23-6.69,10.54-13.34,15.61-20.16,1.86-2.5,3.81-4.1,7-3.51,4.15.76,6.75-1.14,9.07-4.49,3.5-5,7.46-9.75,11.58-15.06l-4.8-.78a5.92,5.92,0,0,1,.59-1.48c5.6-7.25,10.94-14.73,16.94-21.64,3.52-4.06,8.09-7.22,11.75-11.57-7.62-.52-14.57-2.56-21.3,3.9-10.08,9.68-21.51,18-32.35,26.87-1.27,1-2.4,2.25-4,3.74l4.76,1c-7.14,6.4-13.82,12.57-20.75,18.45-1.18,1-3.46,1.14-5.17,1-4-.38-6.9,1.11-9.76,3.82-7.15,6.75-14.36,13.46-21.94,19.7-5.62,4.62-11.88,8.47-17.84,12.68-1.2.85-2.31,1.81-4.36,3.42l7.37,1c-2.39,2.62-4,4.59-5.78,6.27-4.08,3.77-7.72,7.55-14.36,7.74-3.48.09-6.83,4.62-11.06,7.75l4.42,1.13c-6.11-1.16-9.67,2.73-13.55,6.23-30.8,27.81-61.77,55.43-92.39,83.43-5.31,4.85-10.92,5.25-16.46,3Q66,337.71,18.71,317.53C6.57,312.32.64,302.11,0,289.05c-.57-12.54,4.55-22.46,15.43-28.82,18-10.5,35.51-22,54.38-30.57,17.5-7.94,33.37-18.5,50.4-27.07,1.58-.79,3.49-1.62,5.15-1.46,5.48.54,10-1.49,14.53-4.2,8.57-5.12,17.33-9.94,26.41-15.11L163,180.29c14.72-8.36,29.12-16.59,43.59-24.69,1.54-.86,3.7-.62,5.21-1.51,9.41-5.6,18.6-11.75,30.46-9.88l-8.23-.39c.83-1.44,1.15-2.85,2-3.31,7.34-4,13.87-9.57,23.34-8.78,3.57.29,7.43-2.72,11.16-4.23L270.1,126H228.16l-.33-1.8c4.09-1,8.34-3.39,12.24-2.9,14.84,1.87,26.94-3.79,39.22-11.13,24.71-14.78,49.93-28.72,75-42.85,2.33-1.31,5.27-1.54,7.93-2.26,2.51-.68,5.29-.87,7.5-2.1,15.72-8.77,31.28-17.81,47-26.57C419.1,35,422,34.74,424.69,34c1.43-.37,3.09-.27,4.32-1C442.51,25.5,456,17.81,469.32,9.26H454.24c11.81-10.62,28.24-12.32,40.22-4a21.15,21.15,0,0,0,13.39,3.8c12-.19,15.53,2.56,18.67,14.41.83,3.15,1,6.48,1.47,10.09l-7,.76c-1.58,10-3.18,20.09-4.84,30.52h-8.79C504.18,85.58,501,106,497.78,127h11c-1.41,9-1.2,18.23-4.58,25.8a63.13,63.13,0,0,0-4.64,16.12H540c-1.31,4.34-2.4,8-3.63,12H448.71v11.85h52.82c-.39,3-.7,5.32-1,7.54a4.54,4.54,0,0,1-1.14.53c-8.68.56-8.68.56-10,9-.69,4.45-1.43,8.89-2,13.34-.41,3-.52,6.07-5.15,4.6-6.7,43.5-13.32,86.42-20.05,130.05h17.4c-.47,3.32-.84,5.92-1.29,9H452l-2.9,17.92H407.58v10.62c2.73.35,5,1.43,3.1,5.8h16.89l0,1.42H395.79V409h66.73c-.41,3.8-.77,7-1.14,10.51l3.54.9c2.18,4.07-4.6,9.47,2.86,12.63-1.47,8-2.92,16.22-4.49,24.38-.65,3.36-2.5,5.35-6.29,4.62-.8-.15-1.67.06-2.49,0-6.06-.68-10.35.78-14.54,6.28-7.69,10.11-19.2,13.95-31.29,10.27-13.39-4.08-26.17-10.18-39-16.51h13.1l.19-.84c-1.43-.67-2.83-1.39-4.28-2-18.61-7.77-37.16-15.67-55.86-23.22-8.6-3.47-17.4-6.52-26.29-9.13-1.71-.5-4.28,1.95-7.53,3.58l4.28,2.32c-6.12,9.16-12.11,18.37-18.44,27.35-.86,1.23-3.54,2.08-5.12,1.77-9.82-1.89-15.39,2.6-20.08,10.88-5.81,10.27-12.91,19.8-19.48,29.63-5.63,8.4-13.71,11.74-22.77,9.48a20.36,20.36,0,0,1-15.36-19.33C191.63,482.6,192,472.62,192,462Zm105.7-329.82c10.44-1.35,21.55,3.22,31-5.81h-31Zm114.5-30.89-.7-.64-22.3,20,7.35.76Zm-38.34,37.26,10.82-12.31C377.83,126.85,373.28,132.16,373.83,138.54Zm21.79-3.73.94.36,5.83-7.88h-6.77Z"/><path d="M199.21,125.69c7-6.51,15-4.2,22.89-4.73.14,1.68.25,3.06.39,4.73Z"/><path class="cls-1" d="M297.67,132.17v-5.81h31C319.22,135.39,308.11,130.82,297.67,132.17Z"/><path class="cls-1" d="M412.17,101.28l-15.65,20.16-7.35-.76,22.3-20Z"/><path class="cls-1" d="M373.83,138.54c-.55-6.38,4-11.69,10.82-12.31Z"/><path class="cls-1" d="M395.62,134.81v-7.52h6.77l-5.83,7.88Z"/></g></g></svg>