<svg xmlns="http://www.w3.org/2000/svg" viewBox="0 0 536.36 512.77"><title>Asset 1</title><g id="Layer_2" data-name="Layer 2"><g id="Layer_1-2" data-name="Layer 1"><path d="M370.45,232c0,4.34.07,8,0,11.57-.12,4.68-2.76,7.5-7.45,7.34a10.88,10.88,0,0,0-9.23,3.72,8.43,8.43,0,0,1-5.61,2.27c-15.66.18-31.33.21-47,0-2.21,0-5.44-1.12-6.38-2.76-2-3.43-4.64-3.31-7.61-3.15-2.86-9.85.5-19.47,16.43-19.14-3-3.86-5.35-7.57-8.34-10.68-8.54-8.85-17.34-17.45-26.63-26.74l7-.72-3.43-3.77-.08,1.37c-4,.92-8,1.66-11.83,2.84a11.53,11.53,0,0,0-4.42,2.9c-8.66,8.54-17.38,17-25.8,25.81-9.35,9.75-18.4,19.79-28.43,30.64V232H182.37c-3.33,0-6.69-.24-10,.05-7,.62-14,1.52-21.38,2.34v9.3l5.77.58c.25,2,.49,4.11.81,6.72H196.5l-5.66,5.37,3.42,1.21c-7.39,7.36-14.46,14.66-21.82,21.66-9.55,9.07-20.91,11.66-33.26,7.27C127,282.16,120,273.11,118.25,260.22c-.13-1-.39-1.91-.69-3.35H102.39l4.54-5.57H85.57c-.34-2.72-.6-4.78-.89-7.06L77,243.71l1.78-11.39a34.23,34.23,0,0,0-3.57-.32q-20.74,0-41.49,0c-4.85,0-7.49,3-8.17,7.74-.52,3.6-2,7.08-3.42,10.49-.24.6-2,.59-3.66,1,0-5.95-.32-11.44.16-16.86.18-2,2.69-3.75,3.28-5.85a41.31,41.31,0,0,0,1.53-10.06c.21-7.95.07-15.91.07-24.16l8-.57V177.05H42.73V146.19H29.9v-34.9l5.58-.6V88.17H22V46H0c.43-7.55.65-14.63,1.41-21.65.13-1.24,2.54-3.29,3.75-3.19,3.92.34,5.34-1.67,7-4.72,11.89-21.55,42.74-22,55.3-.92.9,1.52,1.54,3.2,2.46,5.14l-6.51.57c.43,8.18.86,16.1,1.31,24.61H85.86v42H99.4v22.68l-5.53.78v34.54h12.8v31.06H95.84v16.77l-8.67.55V232c13.11,0,26.94.51,40.69-.36,3.51-.22,7-4.51,10.07-7.44,9.34-9,18.39-18.37,27.68-27.46,1.31-1.28,3.41-2.7,5-2.55,4.73.45,7.88-1.6,10.72-5,1.71-2,3.94-3.63,5.58-5.71,3.87-4.93,8.48-7.64,15-6.62a6,6,0,0,0,4.39-1.62c9.52-9.31,18.89-18.77,29.19-29.07H223.57c-.23-.47-.46-.95-.68-1.42,9.86-9.29,19-19.47,29.78-27.62,11.68-8.86,28.13-6.48,39,3.89,7.24,6.89,14.29,14,21.2,21.21,2.63,2.74,5.33,4.37,9.15,3.75,6-1,10.27,1.41,14.33,5.84,7.31,8,15.25,15.38,22.87,23.08,2,2,4.16,3.2,6.47.92,9.69-9.56,19.26-19.25,29.58-29.61H382.67c1.35-1.72,2-2.75,2.83-3.59q14.47-14.51,29-29c.93-.92,2.14-2.47,3.05-2.36,7.58.9,10.52-5.39,14.92-9.34,4.56-4.09,8.91-8.42,14.47-13.7H434.43c8.08-17,28.92-27.22,44.86-22.36,10.12,3.09,16,9,21.88,22.1H514.7a31.41,31.41,0,0,1-1.62,20.73c-.36.82-1.38,2.11-1.86,2-5.94-1.25-7.33,4-10.3,7Q488.77,130,476.58,142.17c-.91.91-1.73,1.92-3.24,3.6h12.48c-1.62,1.94-2.42,3.07-3.39,4-7.87,7.92-15.86,15.72-23.62,23.75-2.38,2.46-4.83,4-8.28,3.41-4.78-.84-8.26,1.08-11.26,4.71-2.22,2.68-5,4.87-7.34,7.49-2.88,3.28-5.95,5.45-10.71,5-1.59-.16-3.7,1.25-5,2.53-9.06,8.85-17.93,17.89-27,26.78a87.4,87.4,0,0,1-8.62,7.47c-1,.8-2.73.9-4.15,1C374.41,232.1,372.3,232,370.45,232Z"/><path d="M22,257h9.26l.44-5.57H68.42l-5.74,4.18.23,1.1H86v6.6c0,33.83,0,67.66.07,101.49,0,3.44.26,7.15,1.57,10.24,3.11,7.39,9.45,9.44,17.12,9.43q104.24-.15,208.48-.05,88.5,0,177,0c10.66,0,20.63,1.11,30.94,5.65,8.42,3.7,11.77,9.27,14.86,16.4a11.91,11.91,0,0,1,.36,2.54H513.58a35.1,35.1,0,0,1-5.22,25.73l7.87.58c-1.73,1.87-2.9,3.38-4.31,4.63-6.85,6.07-15,8.14-24,8.14q-198-.11-396,0a81.63,81.63,0,0,1-42.45-11.34c-1.26-.74-2.84-1.74-4.09-1.54-7.28,1.16-12.08-3.13-16.53-7.59-5.38-5.38-10.24-11.26-15.33-16.93l.72-1.37H36.2c-2.47-5.94-4.62-11.12-6.78-16.29-.19-.45-.36-1.18-.69-1.27-7.41-2.07-5-8.81-6-13.56C21.62,373,22,367.5,22,362.18q-.07-49.5,0-99Z"/><path d="M455,330.87H437.84V319.31H455Z"/><path d="M31.45,508.19H36.2v4.58H31.75C31.66,511.38,31.57,510,31.45,508.19Z"/></g></g></svg>