<svg xmlns="http://www.w3.org/2000/svg" viewBox="0 0 546.09 512.71"><defs><style>.cls-1{fill:#fff;}</style></defs><title>Asset 1</title><g id="Layer_2" data-name="Layer 2"><g id="Layer_1-2" data-name="Layer 1"><path d="M9.1,462.13H25.84V434.41c0-.33,0-.89-.13-1-6.16-2.68-2.72-8.47-4.1-12.94l-4.17-.93V408.42l-8.36-.62-.55-7.49-8.3-.48c.11-9.95-1.55-19.73,2.69-29.13,1.17-2.59,2.62-3.88,5.64-3.7,4.32.26,8.75-.48,13,.18,7.84,1.23,12.71-2.41,16.66-8.95H24.72l-.41-1.41c3.52-1.24,7-2.71,10.6-3.64a30.3,30.3,0,0,1,7.45-.59q76.74,0,153.48,0c1.47,0,2.93.16,4.62.26.34,1.78.65,3.35,1,5.19h17.08c.5,2.92,1,5.64,1.52,9h-26.6c2.49,6.36,4.65,11.86,6.95,17.76l-29,3c.68,2.38,1.42,5,2.26,7.95l-8.2.64c.6,2.18,1.12,4.07,1.81,6.56l-8.65.62c1.44,5.2,5.23,5.59,9.63,5.55,14.79-.15,29.59-.05,44.54-.05L209,404.49l4.12-2.09-12.31-11c.23-.64.46-1.28.7-1.93h24.13l.07-1.58-5-1.52.05-1,6.55-.3v14.65c0,5.46,2.58,7.84,7.94,8.49a56.59,56.59,0,0,1,13.37,3c18.26,7.06,36.06,6.47,54.73-2.51l-5.51-.9,9.58-7.34-7.95-.57c3.46-4.33,7.12-8,9.68-12.36a123.55,123.55,0,0,0,8.08-17.09c1-2.42,1.93-3.44,4.56-3.36,5.33.18,10.66.06,16,.06,7.83,0,8.07-.27,7.73-8.92H328.93v-5.59h5.68q75.5,0,151,0a51.28,51.28,0,0,1,19.78,4.29c4.33,1.77,9.78,1.44,14.66,1.12,6.73-.45,9.6,3.8,13.4,9H508.29c1.53,6,2.95,11.52,4.56,17.78H404.69v11.35c3.6,0,7.36-.14,11.11,0,11.26.51,22.51,1.18,33.76,1.71,1.68.08,3.74-.85,5-.17,1.46.81,2.22,2.88,3.93,5.33H404.55c-.1,2-.18,3.71-.29,6H440l-11.7,10.18,4.06,1.34c-.88,3.53-1.74,7-2.61,10.5l1.58-.28c1,2,2.49,3.93,2.95,6.06a24.27,24.27,0,0,0,25.74,19.08c12-1.1,21.19-10.94,20.49-22.51-1-1.7-2.34-3.3-2.95-5.13-1.26-3.79-.91-8.44-7-8.58-1.37,0-2.57-2.84-4.06-4.12-2.38-2.05-4.94-3.9-7.69-6.05h70.44v10l4.78,1.15a42.7,42.7,0,0,0,.11,7.23c.27,1.54,1.6,2.9,2.45,4.34.45.78,1.25,1.57,1.26,2.37.09,9,0,17.93,0,27.37h-17c0,5.54.55,10.69-.13,15.67a153.89,153.89,0,0,1-4.21,18.76c-.76,2.84-2.95,4-6.13,3.8-4.46-.29-9-.08-13.81-.08-.12,1.64-.22,3-.35,4.82h12.62A24.89,24.89,0,0,1,494.22,512a63.61,63.61,0,0,1-10,.63q-219.47,0-438.94.06c-8.69,0-16.94-1.18-24-6.75S9.82,493.34,9.2,484.41C8.7,477.15,9.1,469.83,9.1,462.13Zm395.45,19.15v6.48h6.39v-6.48Z"/><path d="M306.37,126c.54,3.65,1.29,7.28,1.54,11a114,114,0,0,1,0,12c-.09,2.42,1.19,5.44-2.38,6.76-.34.12-.47,1.2-.47,1.83,0,7.63,0,15.26,0,23.14l5.62.7v19.47l-9.33.43c0,7.29-.16,14.55.07,21.8.1,3.28-.46,5.49-4.63,5.34v12.67H241.14v13.58H227.65V240.93l5.61,1.32c-.21-4.34-.42-8.81-.66-13.8,4.63.41,4.81-2.3,4.74-5.57-.16-7-.05-14-.05-21.52l9.35-.51V181.38l-5.65-.67c0-7.84-1-15.81.43-23.3.75-3.81,3.15-7.35,1.86-12.35-8.06,0-16.35.5-24.55-.14-7.45-.59-12.16,2.8-18,7-10.47,7.54-18.71,17.15-28,25.73-.85.78-1.57,1.68-2.73,2.93l4.41.91c-11.45,13.07-31.37,14-44.75,2.57-1.72-1.48-4.28-2-6.4-3-1.54-.75-3.46-1.33-4.39-2.59-4.32-5.81-6.6-12.53-5.67-19.69.43-3.31,3-6.32,4.52-9.49.51-1.05.87-2.16,1.42-3.58l-3.74-1.23,11.86-11.07-9-.83c2.39-3.9,4.61-6.6,9.58-6.58,32.49.16,65,.09,97.48.09h5.87l2.08-15.75c-1.9,1.35-2.7,1.65-3.1,2.23-5.25,7.81-12.75,8.88-21.6,8.69-23.82-.52-47.65-.18-71.48-.18h-5.78c1.6-1.77,2.51-2.86,3.5-3.86q24.55-24.57,49.19-49.07c1.49-1.47,3.9-3,5.8-2.88,4.3.23,7.12-1.47,10-4.42,7.86-8.16,15.94-16.1,24-24,1.12-1.11,2.8-2.69,4-2.51,5.19.76,7.89-2.58,11-5.64,6.1-6.14,12.28-12.19,19.35-19.2H241.46c-.48-.68-1-1.36-1.45-2a17.58,17.58,0,0,0,3.5-1.47c10.65-7.56,25.45-8.07,36.14-.35,4,2.89,7.92,4.13,12.45,3.44,7.85-1.18,13.52,1.72,18.6,7.67,4.95,5.79,10.84,10.77,17.06,16.83l-6,1,30.36,30.17-9.08.76,55.7,55.67H387.15c-10.33,0-20.67-.24-31,.09-6.88.22-14.7-.54-20.32,2.47-4.89,2.62-9.11,2-13.62,2.35-5.3.43-10.66.15-16,.18,2.16-8-4.49-10.57-9.1-15.83-.2,4.44-.33,7.5-.48,10.75-19.09,0-37.55.09-56-.08-3.78,0-6,1.33-7.61,5Z"/><path d="M297.12,358.07H313c.12,7.53-1.27,9-8.25,9-2.17,0-4.34.13-6.49,0-7.9-.54-13.94.58-20.16,7.62-13.86,15.7-41.19,11.16-49.59-7.46h25.26c-1.1-3.32-2-6-3-9H233.37V265.1h57.47c-5.6-3.94-13.47-2-15.88-9.59h47.5c-.29,3.09-.59,6.2-.91,9.6H297.12Z"/><path d="M404.3,181.06v10.77c-7.65-.49-13.58-3.59-19.07-8.09-1.64-1.35-4-1.78-6-2.69-1.73-.78-3.77-1.3-5.07-2.56-6.83-6.58-13.72-13.14-20.09-20.16-3.45-3.8-5.9-8.52-9-13.15h59.17V127.56c7.42-1.45,13.52-.81,18.07,5.52,3.18,4.43,6.76,8.58,10.26,12.76,4.77,5.7-.65,11.44.16,17.17.25,1.73-.37,3.59-.53,4.92l7.67,4.84c-4.75,5.13-9.61,8.89-16.94,8.38C416.93,180.73,410.93,181.06,404.3,181.06Z"/><path d="M546.09,408.86H533.55V403.8C539.65,400.62,542.65,405.07,546.09,408.86Z"/><path d="M270,262.12l-5.9-6.7H270Z"/><path class="cls-1" d="M404.55,481.28h6.39v6.48h-6.39Z"/><path class="cls-1" d="M306.37,126H233c1.63-3.69,3.83-5.05,7.61-5,18.45.17,36.91.08,56,.08.15-3.25.28-6.31.48-10.75,4.61,5.26,11.26,7.8,9.1,15.83Z"/></g></g></svg>